<svg width="24" height="24" viewBox="0 0 24 24" fill="none" xmlns="http://www.w3.org/2000/svg">
<path d="M23.0699 18.8862L19.1253 14.9416C19.8425 13.5072 20.3206 11.8338 20.3206 10.1603C20.3206 4.54226 15.7784 0 10.1603 0C4.54226 0 0 4.54226 0 10.1603C0 15.7784 4.54226 20.3206 10.1603 20.3206C11.8338 20.3206 13.5072 19.8425 14.9416 19.1253L18.8862 23.0699C20.0816 24.2652 21.8746 24.2652 23.0699 23.0699C24.1457 21.8746 24.1457 20.0816 23.0699 18.8862ZM10.1603 17.93C5.85712 17.93 2.39066 14.4635 2.39066 10.1603C2.39066 5.85712 5.85712 2.39066 10.1603 2.39066C14.4635 2.39066 17.93 5.85712 17.93 10.1603C17.93 14.4635 14.4635 17.93 10.1603 17.93Z" fill="#353A40"/>
</svg>
